<?xml version="1.0" standalone="no"?><!DOCTYPE svg PUBLIC "-//W3C//DTD SVG 1.1//EN" "http://www.w3.org/Graphics/SVG/1.1/DTD/svg11.dtd"><svg t="1617001068152" class="icon" viewBox="0 0 1024 1024" version="1.1" xmlns="http://www.w3.org/2000/svg" p-id="1721" xmlns:xlink="http://www.w3.org/1999/xlink" width="200" height="200"><defs><style type="text/css"></style></defs><path  d="M226.037935 0.516129l375.225807 54.709677a40.774194 40.774194 0 0 1 29.419355 20.645162l342.193548 592.516129a41.290323 41.290323 0 0 1-14.967742 56.774193l-507.870968 293.161291a41.806452 41.806452 0 0 1-56.774193-14.967742L51.070194 410.322581a40.258065 40.258065 0 0 1-2.580646-35.096775L181.650839 26.83871A41.290323 41.290323 0 0 1 226.037935 0.516129z m21.67742 86.709677L132.618581 386.064516l309.677419 539.870968 436.645161-251.870968-309.677419-539.870968z m76.903226 130.580646a138.83871 138.83871 0 1 1-51.096775 188.387096 139.354839 139.354839 0 0 1 51.096775-188.387096zM442.812129 310.193548a56.258065 56.258065 0 1 0-20.645161 77.419355 57.290323 57.290323 0 0 0 20.645161-77.419355z" p-id="1722" fill="#6849CB"></path></svg>